<svg width="20" height="20" viewBox="0 0 20 20" fill="none" xmlns="http://www.w3.org/2000/svg">
<path d="M5.73167 6.46792L0.781927 7.15327C0.149634 7.24082 -0.0451362 8.05973 0.480033 8.42257L3.31429 10.3808C3.76594 10.6928 4.32599 10.8055 4.86317 10.6924L8.06919 10.0175C8.6562 9.89389 8.92344 10.72 8.37526 10.9637L5.39413 12.2886C4.81771 12.5448 4.39594 13.0579 4.25614 13.673L3.15711 18.5087C3.02431 19.0931 3.63934 19.5633 4.16841 19.2819L9.25937 16.5741C9.40937 16.4944 9.58962 16.4962 9.73795 16.579L14.5965 19.2923C15.1082 19.5781 15.7235 19.1461 15.6286 18.5678L14.6336 12.5064C14.6069 12.3435 14.6623 12.178 14.7816 12.0639L18.9374 8.09236C19.3635 7.68524 19.1265 6.96606 18.542 6.89186L12.6548 6.14465C12.475 6.12183 12.3217 6.00355 12.254 5.83548L10.0993 0.487382C9.87094 -0.0793117 9.07704 -0.102022 8.8167 0.450694L6.11543 6.1857C6.04342 6.33858 5.89906 6.44474 5.73167 6.46792Z" fill="#2CA5E0"/>
</svg>
