<?xml version="1.0" standalone="no"?>
<!DOCTYPE svg PUBLIC "-//W3C//DTD SVG 20010904//EN"
 "http://www.w3.org/TR/2001/REC-SVG-20010904/DTD/svg10.dtd">
<svg version="1.0" xmlns="http://www.w3.org/2000/svg"
 width="1024.000000pt" height="1024.000000pt" viewBox="0 0 1024.000000 1024.000000"
 preserveAspectRatio="xMidYMid meet">

<g transform="translate(0.000000,1024.000000) scale(0.100000,-0.100000)"
fill="#2ca5e0" stroke="none">
<path d="M4880 8744 c-133 -13 -439 -58 -531 -79 -414 -93 -725 -218 -1124
-451 -491 -287 -905 -715 -1213 -1254 -239 -419 -351 -723 -441 -1192 -54
-280 -64 -408 -58 -733 6 -313 9 -350 63 -615 116 -567 336 -1057 678 -1510
172 -227 286 -346 531 -555 270 -229 580 -418 927 -564 196 -83 498 -174 683
-207 308 -55 454 -66 780 -61 165 3 334 10 375 16 41 6 125 18 185 27 124 17
445 97 577 144 513 181 1021 498 1363 851 380 393 666 857 843 1370 298 862
261 1782 -105 2634 -213 496 -544 965 -906 1283 -540 475 -1202 778 -1907 873
-140 19 -603 34 -720 23z m300 -388 c0 -3 -4 -8 -10 -11 -5 -3 -10 -1 -10 4 0
6 5 11 10 11 6 0 10 -2 10 -4z m30 0 c0 -3 -4 -8 -10 -11 -5 -3 -10 -1 -10 4
0 6 5 11 10 11 6 0 10 -2 10 -4z m269 -26 c168 -21 201 -27 426 -79 164 -38
238 -63 512 -174 125 -51 396 -204 386 -219 -3 -6 -1 -8 5 -4 29 18 429 -291
570 -442 201 -214 270 -306 459 -607 33 -52 118 -221 116 -232 0 -7 3 -13 8
-13 7 0 39 -62 39 -76 0 -2 -8 -1 -17 2 -10 3 -7 -2 7 -11 14 -9 17 -14 8 -11
-9 3 -22 -3 -30 -12 -12 -15 -11 -16 5 -3 15 12 17 11 17 -3 0 -9 -4 -16 -10
-16 -15 0 -12 -17 4 -23 10 -4 13 -1 9 9 -3 7 0 14 6 14 6 0 11 -6 11 -12 0
-10 2 -10 9 0 7 11 9 11 14 -2 4 -9 1 -15 -5 -13 -6 1 -17 -8 -23 -20 -7 -13
-14 -21 -16 -18 -3 2 -5 -5 -5 -16 0 -18 2 -18 12 -5 16 22 30 20 48 -6 9 -12
16 -18 16 -12 0 6 -3 14 -7 18 -4 3 -8 14 -9 23 -6 37 16 -9 54 -112 69 -192
104 -305 98 -321 -3 -8 -2 -13 3 -10 5 4 17 -38 26 -91 9 -54 21 -114 25 -133
5 -19 12 -60 15 -90 4 -30 9 -64 11 -75 32 -168 41 -648 15 -820 -21 -144 -68
-372 -100 -492 -122 -449 -387 -927 -707 -1278 -600 -656 -1382 -1020 -2264
-1051 -271 -10 -646 34 -900 106 -447 127 -777 281 -1088 507 -423 308 -750
700 -983 1178 -163 335 -255 619 -304 940 -19 119 -38 559 -30 665 35 445 105
739 262 1110 150 352 377 701 615 947 39 40 75 70 81 66 5 -3 7 -1 3 5 -8 14
77 94 244 229 166 134 237 184 364 257 402 231 875 386 1301 425 209 20 214
20 208 2 -3 -12 -2 -12 7 2 13 20 55 22 90 4 22 -12 28 -11 39 1 8 8 16 10 20
4 3 -5 17 -8 31 -6 14 1 34 3 45 3 17 1 18 3 5 11 -17 12 -7 11 249 -20z"/>
<path d="M5028 8333 c7 -3 16 -2 19 1 4 3 -2 6 -13 5 -11 0 -14 -3 -6 -6z"/>
<path d="M4885 7943 c-67 -6 -325 -53 -425 -78 -260 -66 -562 -193 -800 -337
-488 -294 -871 -736 -1114 -1284 -110 -248 -166 -433 -212 -694 -20 -118 -36
-578 -23 -708 21 -230 117 -596 213 -820 20 -46 33 -89 29 -94 -3 -7 -1 -8 5
-4 7 4 28 -26 56 -85 25 -50 64 -120 86 -155 23 -35 39 -68 35 -74 -4 -6 -1
-9 5 -8 6 2 36 -33 67 -77 259 -370 603 -677 967 -864 298 -153 476 -221 721
-276 246 -55 340 -67 557 -68 194 -2 208 -3 223 -22 10 -14 13 -15 9 -4 -4 14
5 18 58 23 271 29 522 82 693 148 274 105 546 245 684 351 30 23 93 71 140
106 116 87 263 231 388 381 311 371 500 741 602 1175 65 281 79 422 70 740 -7
230 -22 336 -85 590 -67 272 -187 553 -343 803 -115 186 -236 341 -398 511
-409 429 -971 715 -1593 811 -70 11 -525 21 -615 13z m565 -284 c281 -44 493
-111 749 -237 426 -210 790 -539 1052 -951 212 -335 371 -793 396 -1141 l6
-87 -114 -6 c-63 -4 -202 -7 -310 -7 l-196 0 -6 93 c-7 107 -58 350 -94 452
-95 263 -356 627 -593 827 -116 98 -291 210 -435 279 -140 67 -384 143 -512
160 -169 21 -151 12 -159 77 -8 60 -10 259 -6 454 l2 118 48 -6 c26 -3 103
-14 172 -25z m-445 -145 c7 -161 3 -439 -6 -448 -3 -3 -53 -12 -113 -21 -312
-46 -571 -146 -831 -320 -414 -276 -727 -745 -830 -1243 -14 -64 -25 -145 -25
-180 l0 -62 -310 0 -310 1 0 32 c0 117 60 436 111 595 137 420 344 760 644
1057 125 124 210 195 337 283 335 234 727 392 1093 441 88 12 167 24 175 25
60 13 57 21 65 -160z m-425 -1209 c61 -31 236 -140 280 -175 19 -15 161 -107
315 -205 154 -97 363 -233 465 -300 102 -68 244 -160 315 -205 153 -97 263
-177 298 -220 49 -58 48 -148 -1 -209 -27 -34 -199 -144 -517 -332 -66 -39
-176 -105 -245 -146 -69 -42 -172 -103 -230 -136 -58 -34 -136 -82 -175 -107
-38 -26 -128 -80 -200 -120 -71 -41 -170 -99 -220 -130 -106 -67 -162 -90
-213 -90 -52 0 -123 46 -148 96 -18 38 -19 69 -16 1108 3 1169 -1 1091 62
1155 56 56 140 62 230 16z m-1459 -1303 l66 -2 12 -92 c28 -221 84 -406 184
-605 125 -253 232 -401 414 -573 289 -273 696 -463 1118 -522 l90 -13 3 -308
2 -309 -27 6 c-16 3 -55 8 -88 11 -485 51 -983 257 -1370 569 -336 272 -594
626 -776 1069 -86 210 -138 435 -164 707 l-6 65 238 0 c131 -1 268 -2 304 -3z
m4473 -2 l58 0 -7 -72 c-9 -101 -52 -338 -77 -428 -94 -341 -233 -618 -472
-935 -71 -95 -322 -349 -422 -428 -366 -287 -847 -486 -1326 -548 -54 -7 -101
-9 -105 -6 -3 4 -8 144 -11 312 -4 256 -2 305 9 305 48 1 236 34 339 60 160
40 222 64 403 157 249 127 488 323 639 525 207 274 342 586 401 923 l23 130
149 6 c83 3 193 5 245 3 52 -2 121 -4 154 -4z"/>
<path d="M4773 5125 c1 -302 6 -465 12 -465 6 1 54 31 107 68 53 37 121 83
150 103 29 20 158 94 286 164 128 71 229 132 225 136 -4 4 -69 44 -143 87
-356 209 -510 301 -560 335 -30 20 -60 37 -67 37 -10 0 -12 -99 -10 -465z"/>
<path d="M3745 3520 c10 -11 20 -20 23 -20 3 0 -3 9 -13 20 -10 11 -20 20 -23
20 -3 0 3 -9 13 -20z"/>
<path d="M7805 6810 c-3 -5 -1 -10 4 -10 6 0 11 5 11 10 0 6 -2 10 -4 10 -3 0
-8 -4 -11 -10z"/>
<path d="M7850 6743 c0 -6 8 -17 18 -24 16 -13 16 -13 2 6 -8 11 -16 22 -17
24 -2 2 -3 0 -3 -6z"/>
<path d="M7890 6641 c0 -6 4 -13 10 -16 6 -3 7 1 4 9 -7 18 -14 21 -14 7z"/>
<path d="M8090 6210 c0 -5 5 -10 11 -10 5 0 7 5 4 10 -3 6 -8 10 -11 10 -2 0
-4 -4 -4 -10z"/>
<path d="M2643 3735 c0 -8 4 -12 9 -9 5 3 6 10 3 15 -9 13 -12 11 -12 -6z"/>
<path d="M2660 3715 c0 -5 5 -17 10 -25 5 -8 10 -10 10 -5 0 6 -5 17 -10 25
-5 8 -10 11 -10 5z"/>
</g>
</svg>
